#!OML:ASF H:\ManfredETheater\Project 1\Capture day 1\Session 1\subject.ASF
:FULLY-SPECIFIED
:DEGREES
211
root -0.357839 16.9026 -35.0585 -173.655 -4.62516 -182.256
lowerback 9.9647 0.904027 -1.79258
upperback -0.92411 0.94426 -0.37086
thorax -6.59339 0.512203 0.474927
lowerneck -18.7831 -3.03967 -4.1355
upperneck 12.0877 -3.23884 1.26554
head 6.8451 -1.64106 0.714134
rclavicle 1.05853e-014 8.94531e-015
rhumerus -47.217 17.3267 -104.326
rradius 98.874
rwrist -0.454231
rhand -18.7452 11.7562
rfingers 7.12502
rthumb 7.55105 -18.089
lclavicle 1.05853e-014 8.94531e-015
lhumerus -65.8471 -5.62534 99.2728
lradius 102.246
lwrist 13.1178
lhand -19.6044 -16.3666
lfingers 7.12502
lthumb 6.72169 13.5068
rfemur -9.51468 -7.7073 17.1977
rtibia 80.9575
rfoot 4.77179 -6.34915
rtoes -18.9013
lfemur -40.8972 -2.9961 -27.6367
ltibia 56.1487
lfoot -17.3448 -8.92817
ltoes 9.0305
212
root -0.35745 16.8504 -35.5001 -173.337 -4.45729 -182.737
lowerback 9.82778 0.868336 -2.15129
upperback -0.907122 0.842856 -0.535046
thorax -6.49867 0.469971 0.522453
lowerneck -18.9093 -2.9928 -4.1209
upperneck 12.0012 -3.17627 1.28827
head 6.8361 -1.60712 0.725327
rclavicle 7.87684e-015 -5.76476e-015
rhumerus -47.7629 15.3428 -103.67
rradius 96.5311
rwrist -1.56705
rhand -19.1212 11.2388
rfingers 7.12502
rthumb 7.18818 -18.6191
lclavicle 7.87684e-015 -5.76476e-015
lhumerus -63.1616 -6.67743 99.8139
lradius 101.266
lwrist 13.6339
lhand -19.573 -16.661
lfingers 7.12502
lthumb 6.75205 13.2114
rfemur -12.6481 -8.49539 15.9328
rtibia 83.7491
rfoot 3.1901 -6.57201
rtoes -18.4898
lfemur -39.9966 -3.15279 -28.1168
ltibia 57.3084
lfoot -19.2495 -8.32188
ltoes 9.73109
213
root -0.359005 16.8051 -35.9417 -173.039 -4.1691 -183.023
lowerback 9.67041 0.883942 -2.31446
upperback -0.919105 0.839421 -0.649634
thorax -6.42285 0.47064 0.496706
lowerneck -19.0457 -2.97301 -4.14553
upperneck 12.0219 -3.14424 1.33525
head 6.86564 -1.58798 0.746593
rclavicle -1.71452e-015 2.78299e-015
rhumerus -48.4996 13.48 -102.918
rradius 94.3515
rwrist -2.87515
rhand -19.57 10.7741
rfingers 7.12502
rthumb 6.75496 -19.0981
lclavicle -1.71452e-015 2.78299e-015
lhumerus -60.3943 -7.84284 100.259
lradius 100.289
lwrist 13.9912
lhand -19.5088 -16.947
lfingers 7.12502
lthumb 6.81403 12.9234
rfemur -15.8296 -9.15232 15.0065
rtibia 86.1142
rfoot 1.69739 -6.87199
rtoes -18.1044
lfemur -38.945 -3.13338 -28.4069
ltibia 58.2293
lfoot -21.2589 -7.70243
ltoes 9.8389
214
root -0.360692 16.7659 -36.3833 -172.803 -3.81914 -183.203
lowerback 9.55025 0.935605 -2.385
upperback -0.947858 0.897043 -0.732388
thorax -6.38649 0.499401 0.442373
lowerneck -19.1772 -2.97735 -4.19726
upperneck 12.1387 -3.14238 1.40679
head 6.92749 -1.58277 0.77641
rclavicle 1.72446e-014 4.37326e-015
rhumerus -49.4523 11.7975 -102.103
rradius 92.4419
rwrist -4.21379
rhand -20.0102 10.4217
rfingers 7.12502
rthumb 6.32996 -19.4637
lclavicle 1.72446e-014 4.37326e-015
lhumerus -57.6269 -9.01635 100.591
lradius 99.4454
lwrist 13.975
lhand -19.4142 -17.1631
lfingers 7.12502
lthumb 6.90537 12.7042
rfemur -18.9719 -9.72753 14.332
rtibia 88.0463
rfoot 0.280923 -7.21599
rtoes -17.8652
lfemur -37.6907 -3.01469 -28.5908
ltibia 58.9074
lfoot -23.2024 -7.08319
ltoes 9.84265
215
root -0.360626 16.7319 -36.8239 -172.648 -3.49948 -183.358
lowerback 9.51404 0.985107 -2.45857
upperback -0.989684 0.950165 -0.793416
thorax -6.41198 0.527088 0.411861
lowerneck -19.295 -2.98908 -4.25444
upperneck 12.3255 -3.15254 1.49243
head 7.01078 -1.58258 0.810242
rclavicle -1.30204e-014 2.78299e-015
rhumerus -50.6404 10.372 -101.275
rradius 90.9046
rwrist -5.41567
rhand -20.3652 10.2337
rfingers 7.12502
rthumb 5.98726 -19.6617
lclavicle -1.30204e-014 2.78299e-015
lhumerus -54.9475 -10.061 100.811
lradius 98.8538
lwrist 13.4726
lhand -19.335 -17.3442
lfingers 7.12502
lthumb 6.98181 12.5206
rfemur -22.0163 -10.3025 13.8262
rtibia 89.5511
rfoot -1.07924 -7.55932
rtoes -17.8109
lfemur -36.2115 -2.9004 -28.7433
ltibia 59.3321
lfoot -25.047 -6.52468
ltoes 9.78289
216
root -0.357933 16.7032 -37.2647 -172.597 -3.26919 -183.539
lowerback 9.59421 1.00199 -2.59155
upperback -1.03267 0.949326 -0.836876
thorax -6.50494 0.531045 0.439367
lowerneck -19.4021 -2.98797 -4.28784
upperneck 12.5534 -3.15088 1.56591
head 7.10498 -1.57694 0.837729
rclavicle -6.21202e-016 3.18055e-015
rhumerus -52.0744 9.26333 -100.489
rradius 89.8267
rwrist -6.34563
rhand -20.5634 10.2348
rfingers 7.12502
rthumb 5.79588 -19.6659
lclavicle -6.21202e-016 3.18055e-015
lhumerus -52.4401 -10.8518 100.933
lradius 98.637
lwrist 12.4597
lhand -19.2881 -17.4479
lfingers 7.12502
lthumb 7.02704 12.4154
rfemur -24.8866 -10.92 13.4286
rtibia 90.6271
rfoot -2.40936 -7.85945
rtoes -17.9835
lfemur -34.4641 -2.85349 -28.9148
ltibia 59.4908
lfoot -26.751 -6.01972
ltoes 9.65478
